HIERARCHY
ROOT Hips
{
  OFFSET 39.7595 98.8707 3.02326
  CHANNELS 6 Xposition Yposition Zposition Zrotation Xrotation Yrotation
  JOINT spine
  {
    OFFSET 0 8.30104 0.477351
    CHANNELS 3 Zrotation Xrotation Yrotation
    JOINT spine1
    {
      OFFSET 0 10.4565 0
      CHANNELS 3 Zrotation Xrotation Yrotation
      JOINT spine2
      {
        OFFSET 0 10.0192 0
        CHANNELS 3 Zrotation Xrotation Yrotation
        JOINT Neck
        {
          OFFSET 0 25.7235 1.22641
          CHANNELS 3 Zrotation Xrotation Yrotation
          JOINT Head
          {
            OFFSET 0 7.77175 0
            CHANNELS 3 Zrotation Xrotation Yrotation
            End Site
            {
              OFFSET 0 18.812 -6.20394
            }
          }
        }
        JOINT RightShoulder
        {
          OFFSET -4.2188 10.82 -0.587439
          CHANNELS 3 Zrotation Xrotation Yrotation
          JOINT RightArm
          {
            OFFSET 0 14.1914 0
            CHANNELS 3 Zrotation Xrotation Yrotation
            JOINT RightArmRoll
            {
              OFFSET 0 7.16409 0
              CHANNELS 3 Zrotation Xrotation Yrotation
              JOINT RightForeArm
              {
                OFFSET 0 20.8665 0
                CHANNELS 3 Zrotation Xrotation Yrotation
                JOINT RightForeArmRoll
                {
                  OFFSET 0 8.03921 0
                  CHANNELS 3 Zrotation Xrotation Yrotation
                  JOINT RightHand
                  {
                    OFFSET 0 16.133 0
                    CHANNELS 3 Zrotation Xrotation Yrotation
                    End Site
                    {
                      OFFSET 0 0 0
                    }
                  }
                }
              }
            }
          }
        }
        JOINT LeftShoulder
        {
          OFFSET 4.2188 10.82 -0.587439
          CHANNELS 3 Zrotation Xrotation Yrotation
          JOINT LeftArm
          {
            OFFSET 0 14.1914 0
            CHANNELS 3 Zrotation Xrotation Yrotation
            JOINT LeftArmRoll
            {
              OFFSET 0 7.16409 0
              CHANNELS 3 Zrotation Xrotation Yrotation
              JOINT LeftForeArm
              {
                OFFSET 0 20.8665 0
                CHANNELS 3 Zrotation Xrotation Yrotation
                JOINT LeftForeArmRoll
                {
                  OFFSET 0 8.03921 0
                  CHANNELS 3 Zrotation Xrotation Yrotation
                  JOINT LeftHand
                  {
                    OFFSET 0 16.133 0
                    CHANNELS 3 Zrotation Xrotation Yrotation
                    End Site
                    {
                      OFFSET 0 0 0
                    }
                  }
                }
              }
            }
          }
        }
      }
    }
  }
  JOINT RightUpLeg
  {
    OFFSET -7.35773 -1.34921 -1.13181
    CHANNELS 3 Zrotation Xrotation Yrotation
    JOINT RightUpLegRoll
    {
      OFFSET 0 18.9168 0
      CHANNELS 3 Zrotation Xrotation Yrotation
      JOINT RightLeg
      {
        OFFSET 0 -23.4256 0
        CHANNELS 3 Zrotation Xrotation Yrotation
        JOINT RightLegRoll
        {
          OFFSET 0 23.5023 0
          CHANNELS 3 Zrotation Xrotation Yrotation
          JOINT RightFoot
          {
            OFFSET 0 19.5617 0
            CHANNELS 3 Zrotation Xrotation Yrotation
            JOINT RightToeBase
            {
              OFFSET 0 16.3526 0
              CHANNELS 3 Zrotation Xrotation Yrotation
              End Site
              {
                OFFSET 0.00693125 7.91944 -0.912837
              }
            }
          }
        }
      }
    }
  }
  JOINT LeftUpLeg
  {
    OFFSET 7.35773 -1.34921 -1.13181
    CHANNELS 3 Zrotation Xrotation Yrotation
    JOINT LeftUpLegRoll
    {
      OFFSET 0 18.9169 0
      CHANNELS 3 Zrotation Xrotation Yrotation
      JOINT LeftLeg
      {
        OFFSET 0 23.4255 0
        CHANNELS 3 Zrotation Xrotation Yrotation
        JOINT LeftLegRoll
        {
          OFFSET 0 23.7195 0
          CHANNELS 3 Zrotation Xrotation Yrotation
          JOINT LeftFoot
          {
            OFFSET 0 19.3444 0
            CHANNELS 3 Zrotation Xrotation Yrotation
            JOINT LeftToeBase
            {
              OFFSET 0 16.3526 0
              CHANNELS 3 Zrotation Xrotation Yrotation
              End Site
              {
                OFFSET -0.0310629 7.91944 -0.912837
              }
            }
          }
        }
      }
    }
  }
}
MOTION
Frames: 11
Frame Time: 0.00208333
39.8897 98.8716 2.94324 1.48243 -1.69273 1.28221 -0.000220678 -2.65306 0.0866571 0.00393011 -1.30517 0.175336 0.00185033 0.339904 0.179537 -2.34295 38.979 0.0735003 0.45931 -21.7396 -0.904515 27.8728 -11.9241 -8.20547 -24.0902 54.8422 116.282 2.02943e-006 1.63351e-006 2.50698e-006 -30.818 68.6357 35.3255 -5.85579e-006 3.6845e-006 -3.00718 8.02939 -4.95141 0.697663 -32.2364 -10.7747 6.89706 5.78053 52.0545 -100.593 9.54166e-015 6.75868e-015 -3.77691e-015 11.3962 59.9653 -11.4375 4.00639e-006 -3.76634e-007 3.00987 -8.02888 -4.95147 -0.697687 174.606 0.895511 1.81605 -180 7.01555e-015 178.956 175.823 5.92252 179.776 -1.494e-006 -2.10155e-006 0.0663751 -18.6385 68.0207 19.5566 8.13649 25.2327 -3.48773 -176.584 0.290341 1.3539 4.54188e-006 -4.6773e-006 -1.10372 -3.71466 -8.02451 0.366733 -4.00023e-006 -5.89837e-006 -0.0936534 17.9653 66.9808 -18.7213 -8.13649 25.2327 3.48774 
39.8917 98.8765 2.94078 1.48449 -1.70101 1.29049 -0.00320483 -2.64916 0.086386 -0.00154612 -1.29772 0.17509 -0.00361319 0.347346 0.179178 -2.2521 38.9314 0.0402013 0.390789 -21.7106 -0.91302 27.8976 -11.9298 -8.21103 -24.3434 54.8801 116.459 2.02943e-006 1.63351e-006 2.50698e-006 -31.0693 68.9368 35.6324 -5.85579e-006 3.6845e-006 -3.00717 8.02939 -4.95141 0.697663 -32.2026 -10.7683 6.89075 5.97283 52.1825 -100.862 3.18055e-015 8.15017e-015 4.37326e-015 11.4101 60.1169 -11.4875 4.00639e-006 -3.76634e-007 3.00987 -8.02888 -4.95147 -0.697687 174.605 0.892684 1.81812 -180 7.01555e-015 178.956 175.823 5.93053 179.776 -1.494e-006 -2.10155e-006 0.0663327 -18.6379 68.02 19.556 8.13649 25.2327 -3.48773 -176.585 0.292702 1.35267 4.54188e-006 -4.6773e-006 -1.10388 -3.71474 -8.03576 0.36651 -4.00023e-006 -5.89837e-006 -0.0937175 17.9655 66.9812 -18.7216 -8.13649 25.2327 3.48774 
39.8899 98.8757 2.93529 1.48654 -1.70915 1.29892 -0.00615332 -2.64522 0.0861168 -0.00694295 -1.29019 0.174851 -0.00899743 0.354881 0.178805 -2.16193 38.8832 0.00713475 0.32197 -21.6815 -0.921709 27.9224 -11.9358 -8.21688 -24.5855 54.9184 116.626 2.02943e-006 1.63351e-006 2.50698e-006 -31.3212 69.2323 35.9379 -5.85579e-006 3.6845e-006 -3.00717 8.02939 -4.95141 0.697663 -32.1702 -10.7614 6.88394 6.15852 52.3078 -101.123 -3.18055e-015 -6.55989e-015 1.78906e-015 11.4231 60.2658 -11.5358 4.00639e-006 -3.76634e-007 3.00987 -8.02888 -4.95147 -0.697687 174.604 0.889936 1.82007 -180 7.01554e-015 178.956 175.823 5.93837 179.776 -1.494e-006 -2.10155e-006 0.0662906 -18.6372 68.0192 19.5553 8.13649 25.2327 -3.48773 -176.585 0.295248 1.35141 4.54188e-006 -4.6773e-006 -1.10404 -3.71487 -8.04694 0.366273 -4.00023e-006 -5.89837e-006 -0.0937778 17.9658 66.9818 -18.7219 -8.13649 25.2327 3.48774 
39.8893 98.8707 2.93308 1.48856 -1.7172 1.30736 -0.00900285 -2.64126 0.0858508 -0.0121592 -1.28259 0.174615 -0.0142013 0.362484 0.178419 -2.07383 38.8352 -0.0251441 0.253952 -21.6529 -0.930389 27.9462 -11.9419 -8.22282 -24.8149 54.9576 116.779 2.02943e-006 1.63351e-006 2.50698e-006 -31.5725 69.5212 36.2407 -5.85579e-006 3.6845e-006 -3.00717 8.02939 -4.95141 0.697663 -32.1398 -10.7537 6.87622 6.33619 52.4295 -101.373 3.18055e-015 -1.15295e-014 -3.57812e-015 11.435 60.4124 -11.5823 4.00639e-006 -3.76634e-007 3.00987 -8.02888 -4.95147 -0.697687 174.603 0.887214 1.8219 -180 7.01554e-015 178.956 175.823 5.94595 179.776 -1.494e-006 -2.10155e-006 0.0662488 -18.6364 68.0184 19.5545 8.13649 25.2327 -3.48773 -176.585 0.297931 1.35009 4.54188e-006 -4.6773e-006 -1.1042 -3.71503 -8.0581 0.366024 -4.00023e-006 -5.89837e-006 -0.0938354 17.9662 66.9823 -18.7222 -8.13649 25.2327 3.48774 
39.8897 98.8685 2.92833 1.4905 -1.72523 1.31566 -0.0116901 -2.63729 0.0855891 -0.0170935 -1.27494 0.174379 -0.0191238 0.370131 0.178022 -1.98918 38.7882 -0.056083 0.187838 -21.6254 -0.938867 27.9684 -11.9478 -8.22864 -25.03 54.9979 116.919 2.02943e-006 1.63351e-006 2.50698e-006 -31.8218 69.8028 36.5391 -5.85579e-006 3.6845e-006 -3.00717 8.02939 -4.95141 0.697663 -32.1122 -10.7448 6.86721 6.50435 52.5465 -101.61 -9.54166e-015 2.18663e-015 9.54166e-015 11.4458 60.5571 -11.6269 4.00639e-006 -3.76634e-007 3.00987 -8.02888 -4.95147 -0.697687 174.602 0.884464 1.82363 -180 7.01554e-015 178.956 175.823 5.95322 179.776 -1.494e-006 -2.10155e-006 0.0662073 -18.6355 68.0174 19.5536 8.13649 25.2327 -3.48773 -176.585 0.300701 1.34869 4.54188e-006 -4.6773e-006 -1.10436 -3.71525 -8.06928 0.365764 -4.00023e-006 -5.89837e-006 -0.0938915 17.9666 66.983 -18.7227 -8.13649 25.2327 3.48774 
39.8859 98.8692 2.92473 1.49233 -1.73328 1.3237 -0.0141519 -2.63332 0.0853327 -0.0216449 -1.26727 0.174137 -0.0236638 0.377797 0.177616 -1.90937 38.7431 -0.0851324 0.124726 -21.6 -0.946951 27.9882 -11.9533 -8.23415 -25.229 55.0396 117.043 2.02943e-006 1.63351e-006 2.50698e-006 -32.0674 70.0763 36.8312 -5.85579e-006 3.6845e-006 -3.00717 8.02939 -4.95141 0.697663 -32.0882 -10.7342 6.85652 6.6615 52.6579 -101.833 -1.59028e-014 7.55382e-015 2.38542e-015 11.4552 60.7005 -11.6695 4.00639e-006 -3.76634e-007 3.00987 -8.02888 -4.95147 -0.697687 174.601 0.881631 1.82526 -180 7.01554e-015 178.956 175.823 5.9601 179.776 -1.494e-006 -2.10155e-006 0.0661661 -18.6344 68.0162 19.5525 8.13649 25.2327 -3.48773 -176.585 0.30351 1.34718 4.54188e-006 -4.6773e-006 -1.10451 -3.71551 -8.08054 0.365494 -4.00023e-006 -5.89837e-006 -0.0939474 17.9672 66.9839 -18.7233 -8.13649 25.2327 3.48774 
39.8886 98.8704 2.92069 1.49402 -1.7414 1.33134 -0.0163247 -2.62938 0.0850828 -0.0257119 -1.25961 0.173885 -0.0277203 0.385458 0.177201 -1.83576 38.7007 -0.111745 0.0657158 -21.5771 -0.954449 28.0048 -11.9583 -8.23916 -25.4103 55.083 117.15 2.02943e-006 1.63351e-006 2.50698e-006 -32.3077 70.3408 37.1153 -5.85579e-006 3.6845e-006 -3.00717 8.02939 -4.95141 0.697663 -32.0683 -10.7216 6.84375 6.80605 52.7627 -102.037 -3.47595e-031 1.66979e-014 1.19271e-015 11.463 60.8429 -11.7099 4.00639e-006 -3.76634e-007 3.00988 -8.02888 -4.95147 -0.697687 174.601 0.878662 1.8268 -180 7.01554e-015 178.956 175.823 5.96652 179.775 -1.494e-006 -2.10155e-006 0.0661252 -18.6331 68.0147 19.5512 8.13649 25.2327 -3.48773 -176.584 0.306306 1.34553 4.54188e-006 -4.6773e-006 -1.10466 -3.71582 -8.09193 0.365216 -4.00023e-006 -5.89837e-006 -0.0940043 17.9679 66.985 -18.724 -8.13649 25.2327 3.48774 
39.8908 98.8708 2.91808 1.49553 -1.74965 1.33845 -0.0181455 -2.62548 0.0848406 -0.0291934 -1.25198 0.17362 -0.0311922 0.393088 0.17678 -1.76972 38.6617 -0.135377 0.0119059 -21.5575 -0.961168 28.0175 -11.9625 -8.24346 -25.5722 55.1285 117.238 2.02943e-006 1.63351e-006 2.50698e-006 -32.5409 70.5955 37.3892 -5.85579e-006 3.6845e-006 -3.00717 8.02939 -4.95141 0.697663 -32.0534 -10.7066 6.82851 6.93641 52.8599 -102.221 9.54166e-015 2.18663e-015 3.97569e-016 11.4692 60.9847 -11.748 4.00639e-006 -3.76634e-007 3.00988 -8.02888 -4.95147 -0.697687 174.6 0.875503 1.82825 -180 7.01554e-015 178.956 175.822 5.97243 179.775 -1.494e-006 -2.10155e-006 0.0660846 -18.6315 68.0129 19.5495 8.13649 25.2327 -3.48773 -176.584 0.309043 1.34371 4.54188e-006 -4.6773e-006 -1.1048 -3.71618 -8.10352 0.36493 -4.00023e-006 -5.89837e-006 -0.0940634 17.9688 66.9863 -18.725 -8.13649 25.2327 3.48774 
39.8825 98.8683 2.90811 1.49683 -1.75808 1.34488 -0.0195508 -2.62164 0.0846071 -0.0319882 -1.24441 0.173337 -0.0339784 0.400663 0.176353 -1.71264 38.6271 -0.155484 -0.0356057 -21.542 -0.966916 28.0254 -11.9658 -8.24685 -25.713 55.1764 117.305 2.02943e-006 1.63351e-006 2.50698e-006 -32.7649 70.8397 37.6508 -5.85579e-006 3.6845e-006 -3.00717 8.02939 -4.95141 0.697663 -32.044 -10.6889 6.81042 7.05096 52.9485 -102.383 -3.18055e-015 -7.55382e-015 -3.57812e-015 11.4734 61.1264 -11.7837 4.00639e-006 -3.76634e-007 3.00988 -8.02888 -4.95147 -0.697687 174.6 0.8721 1.82963 -180 7.01554e-015 178.955 175.822 5.97774 179.775 -1.494e-006 -2.10155e-006 0.0660444 -18.6295 68.0106 19.5475 8.13649 25.2327 -3.48773 -176.583 0.31167 1.34169 4.54188e-006 -4.6773e-006 -1.10495 -3.7166 -8.11534 0.364639 -4.00023e-006 -5.89837e-006 -0.0941259 17.9699 66.9879 -18.7262 -8.13649 25.2327 3.48774 
39.8842 98.865 2.90551 1.49789 -1.76675 1.3505 -0.0204774 -2.61787 0.0843836 -0.0339951 -1.23691 0.173032 -0.035978 0.408159 0.175922 -1.66586 38.5975 -0.171523 -0.0757208 -21.5311 -0.971502 28.0278 -11.9679 -8.24913 -25.8309 55.2269 117.351 2.02943e-006 1.63351e-006 2.50698e-006 -32.9779 71.0725 37.8976 -5.85579e-006 3.6845e-006 -3.00717 8.02939 -4.95141 0.697663 -32.0411 -10.668 6.78908 7.14807 53.0277 -102.519 3.18055e-015 7.55382e-015 -1.98785e-015 11.4757 61.2685 -11.8169 4.00639e-006 -3.76634e-007 3.00988 -8.02888 -4.95147 -0.697687 174.601 0.868399 1.83093 -180 7.01554e-015 178.955 175.822 5.98239 179.775 -1.494e-006 -2.10155e-006 0.0660046 -18.6272 68.0079 19.545 8.13649 25.2327 -3.48773 -176.582 0.314137 1.33945 4.54188e-006 -4.6773e-006 -1.1051 -3.71706 -8.12745 0.364343 -4.00023e-006 -5.89837e-006 -0.094193 17.9713 66.9898 -18.7277 -8.13649 25.2327 3.48774 
39.885 98.8644 2.89921 1.49863 -1.77583 1.35558 -0.0209049 -2.61411 0.0841696 -0.0351968 -1.22937 0.172742 -0.037174 0.415702 0.175506 -1.62788 38.5738 -0.184493 -0.109932 -21.5269 -0.975643 28.0249 -11.9692 -8.25075 -25.9265 55.2814 117.372 2.02943e-006 1.63351e-006 2.50698e-006 -33.1803 71.2987 38.1302 -5.85579e-006 3.6845e-006 -3.00717 8.02939 -4.95141 0.697663 -32.0442 -10.6434 6.76404 7.22891 53.099 -102.631 4.96564e-032 2.38542e-015 -1.19271e-015 11.4755 61.412 -11.8473 4.00639e-006 -3.76634e-007 3.00988 -8.02888 -4.95147 -0.697687 174.601 0.863978 1.8321 -180 7.01554e-015 178.955 175.822 5.98608 179.774 -1.494e-006 -2.10155e-006 0.065965 -18.6244 68.0046 19.5421 8.13649 25.2327 -3.48773 -176.58 0.316441 1.33687 4.54188e-006 -4.6773e-006 -1.10525 -3.71755 -8.14006 0.364028 -4.00023e-006 -5.89837e-006 -0.0942625 17.973 66.9921 -18.7295 -8.13649 25.2327 3.48774 
